<svg xmlns="http://www.w3.org/2000/svg" width="44.186" height="24" viewBox="0 0 44.186 24"><defs><style>.a{fill:#000;}</style></defs><path class="a" d="M-5.145-8.1q0-.465-.651-.465a4.71,4.71,0,0,0-1.426.248q-.775.248-1.705.651t-1.938.915q-1.008.512-1.938,1.039A21.2,21.2,0,0,0-15.525-3.98q-.721.6-1.178,1.047t-.907.822a3.079,3.079,0,0,1-1.6.868,2.55,2.55,0,0,1-.977-.178,2.671,2.671,0,0,1-.791-.5A2.5,2.5,0,0,1-21.812-3.8q0-1.922,3.4-7.55,1.457-2.419,2.822-4.256a31.386,31.386,0,0,1,2.62-3.132,24.152,24.152,0,0,1,2.4-2.194q2.357-1.845,3.752-1.845a.856.856,0,0,1,.667.295.937.937,0,0,1,.264.636,3.163,3.163,0,0,1-.488,1.6q-.488.829-1.295,2.085l-3.3,5.008a22.9,22.9,0,0,0-1.62,2.674,2.007,2.007,0,0,0-.07.411q0,.124.171.124a3.925,3.925,0,0,0,.961-.357l1.984-.9a19.335,19.335,0,0,1,7.24-1.953,3.146,3.146,0,0,1,2.62,1.442,4.871,4.871,0,0,1,.977,2.915A6.877,6.877,0,0,1,.809-6.1,4.031,4.031,0,0,1-.61-4.313q-.938.651-1.868,1.209L-4.463-1.926q-5.628,3.147-8.171,3.147-3.519,0-3.519-1.829a1.561,1.561,0,0,1,.961-1.473q8.853-4.791,9.24-5.039Q-5.145-7.631-5.145-8.1Zm21.085,0q0-.465-.651-.465a4.71,4.71,0,0,0-1.426.248q-.775.248-1.705.651t-1.938.915q-1.008.512-1.938,1.039A21.2,21.2,0,0,0,5.561-3.98q-.721.6-1.178,1.047t-.907.822a3.079,3.079,0,0,1-1.6.868A2.55,2.55,0,0,1,.9-1.422a2.671,2.671,0,0,1-.791-.5A2.5,2.5,0,0,1-.726-3.8q0-1.922,3.4-7.55,1.457-2.419,2.822-4.256a31.386,31.386,0,0,1,2.62-3.132,24.152,24.152,0,0,1,2.4-2.194q2.357-1.845,3.752-1.845a.856.856,0,0,1,.667.295.937.937,0,0,1,.264.636,3.163,3.163,0,0,1-.488,1.6q-.488.829-1.295,2.085l-3.3,5.008a22.894,22.894,0,0,0-1.62,2.674,2.007,2.007,0,0,0-.07.411q0,.124.171.124a3.925,3.925,0,0,0,.961-.357l1.984-.9a19.335,19.335,0,0,1,7.24-1.953,3.146,3.146,0,0,1,2.62,1.442,4.871,4.871,0,0,1,.977,2.915,6.877,6.877,0,0,1-.481,2.7,4.031,4.031,0,0,1-1.419,1.783q-.938.651-1.868,1.209L16.623-1.926Q10.995,1.222,8.452,1.222q-3.519,0-3.519-1.829a1.561,1.561,0,0,1,.961-1.473q8.853-4.791,9.24-5.039Q15.94-7.631,15.94-8.1Z" transform="translate(21.812 22.778)"/></svg>